<?xml version="1.0" encoding="utf-8"?>
<!-- Generator: Adobe Illustrator 25.1.0, SVG Export Plug-In . SVG Version: 6.00 Build 0)  -->
<svg version="1.1" id="Layer_1" xmlns="http://www.w3.org/2000/svg" xmlns:xlink="http://www.w3.org/1999/xlink" x="0px" y="0px"
	 viewBox="0 0 48 35" style="enable-background:new 0 0 48 35;" xml:space="preserve">
<style type="text/css">
	.st0{fill:#FFFFFF;}
</style>
<g>
	<path class="st0" d="M34.56,25.93c-0.16,0.35-0.35,0.67-0.58,0.97c-1.15,1.46-3.12,2.43-5.33,2.43H6.37
		c-2.33,0-4.38-1.05-5.49-2.64c-0.18-0.25-0.33-0.52-0.45-0.79l-0.39,2.92c-0.16,1.25,0.11,2.53,0.84,3.54
		C2.01,33.95,4.04,35,6.37,35h22.26c2.23,0,4.18-0.97,5.33-2.43c0.84-1.07,1.16-2.45,0.98-3.8L34.56,25.93z"/>
	<path class="st0" d="M34.18,23.16c-0.06,0.1-0.12,0.19-0.19,0.27c-1.15,1.46-3.12,2.43-5.33,2.43H6.37c-2.33,0-4.38-1.05-5.49-2.64
		c-0.02-0.04-0.06-0.09-0.08-0.12l1.14-8.68c0.02-0.17,0.04-0.35,0.04-0.52c0.04-0.59,0.17-1.15,0.41-1.68
		c0.95,2.01,3.26,3.42,5.95,3.42h18.1c6.67-0.06,6.29-4.52,6.46-1.76c0.01,0.19,0.02,0.37,0.05,0.56L34.18,23.16z"/>
</g>
<g>
	<path class="st0" d="M12.48,12.53H12c-0.65,0-1.19-0.55-1.19-1.21V1.13c0-0.67,0.53-1.21,1.19-1.21h0.48
		c0.65,0,1.19,0.55,1.19,1.21v10.18C13.67,11.98,13.14,12.53,12.48,12.53z"/>
	<path class="st0" d="M17.62,12.53h-0.48c-0.65,0-1.19-0.55-1.19-1.21V1.13c0-0.67,0.53-1.21,1.2-1.21h0.48
		c0.65,0,1.19,0.55,1.19,1.21v10.18C18.83,11.98,18.29,12.53,17.62,12.53z"/>
	<path class="st0" d="M23,12.53h-0.48c-0.65,0-1.19-0.55-1.19-1.21V1.13c0-0.67,0.53-1.21,1.19-1.21H23c0.65,0,1.19,0.55,1.19,1.21
		v10.18C24.18,11.98,23.65,12.53,23,12.53z"/>
</g>
</svg>
